REM DIRINDEX 1\5,1\2\6,1\2\7,1\3\8,1\3\9,1\4\10,1\4\11,1\4\12
REM DIRNAME folder01,folder02,folder03,folder04,folder05,folder06,folder07,folder08,folder09,folder10,folder11,folder12
TITLE ""
FILE "EJE_DB3000_5th_2A_51.mp3" MP3
  TRACK 01 AUDIO
    TITLE "0:"
    INDEX 01 00:00:00
  TRACK 02 AUDIO
    TITLE "10:cjc026_08217"
    INDEX 01 00:00:05
  TRACK 03 AUDIO
    TITLE "0:"
    INDEX 01 00:00:70
  TRACK 04 AUDIO
    TITLE "11:cjc026_08218"
    INDEX 01 00:01:22
  TRACK 05 AUDIO
    TITLE "0:"
    INDEX 01 00:02:22
  TRACK 06 AUDIO
    TITLE "12:cjc026_08219"
    INDEX 01 00:02:47
  TRACK 07 AUDIO
    TITLE "0:"
    INDEX 01 00:03:39
  TRACK 08 AUDIO
    TITLE "10:cjc026_08220"
    INDEX 01 00:03:64
  TRACK 09 AUDIO
    TITLE "0:"
    INDEX 01 00:04:58
  TRACK 10 AUDIO
    TITLE "11:cjc026_08221"
    INDEX 01 00:05:09
  TRACK 11 AUDIO
    TITLE "0:"
    INDEX 01 00:06:14
  TRACK 12 AUDIO
    TITLE "12:cjc026_08222"
    INDEX 01 00:06:41
  TRACK 13 AUDIO
    TITLE "0:"
    INDEX 01 00:07:35
  TRACK 14 AUDIO
    TITLE "10:cjc026_08223"
    INDEX 01 00:07:60
  TRACK 15 AUDIO
    TITLE "0:"
    INDEX 01 00:08:48
  TRACK 16 AUDIO
    TITLE "11:cjc026_08224"
    INDEX 01 00:09:00
  TRACK 17 AUDIO
    TITLE "0:"
    INDEX 01 00:10:04
  TRACK 18 AUDIO
    TITLE "12:cjc026_08225"
    INDEX 01 00:10:29
  TRACK 19 AUDIO
    TITLE "0:"
    INDEX 01 00:11:17
  TRACK 20 AUDIO
    TITLE "10:cjc026_08226"
    INDEX 01 00:11:44
  TRACK 21 AUDIO
    TITLE "0:"
    INDEX 01 00:12:30
  TRACK 22 AUDIO
    TITLE "11:cjc026_08227"
    INDEX 01 00:12:56
  TRACK 23 AUDIO
    TITLE "0:"
    INDEX 01 00:13:53
  TRACK 24 AUDIO
    TITLE "12:cjc026_08228"
    INDEX 01 00:14:04
  TRACK 25 AUDIO
    TITLE "0:"
    INDEX 01 00:14:64
  TRACK 26 AUDIO
    TITLE "10:cjc026_08229"
    INDEX 01 00:15:17
  TRACK 27 AUDIO
    TITLE "0:"
    INDEX 01 00:16:10
  TRACK 28 AUDIO
    TITLE "11:cjc026_08230"
    INDEX 01 00:16:38
  TRACK 29 AUDIO
    TITLE "0:"
    INDEX 01 00:17:18
  TRACK 30 AUDIO
    TITLE "12:cjc026_08231"
    INDEX 01 00:17:43
  TRACK 31 AUDIO
    TITLE "0:"
    INDEX 01 00:18:37
  TRACK 32 AUDIO
    TITLE "10:cjc026_08232"
    INDEX 01 00:18:64
  TRACK 33 AUDIO
    TITLE "0:"
    INDEX 01 00:19:58
  TRACK 34 AUDIO
    TITLE "11:cjc026_08233"
    INDEX 01 00:20:10
  TRACK 35 AUDIO
    TITLE "0:"
    INDEX 01 00:21:29
  TRACK 36 AUDIO
    TITLE "12:cjc026_08234"
    INDEX 01 00:21:55
  TRACK 37 AUDIO
    TITLE "0:"
    INDEX 01 00:22:48
  TRACK 38 AUDIO
    TITLE "10:cjc026_08235"
    INDEX 01 00:23:03
  TRACK 39 AUDIO
    TITLE "0:"
    INDEX 01 00:24:00
  TRACK 40 AUDIO
    TITLE "11:cjc026_08236"
    INDEX 01 00:24:25
  TRACK 41 AUDIO
    TITLE "0:"
    INDEX 01 00:25:31
  TRACK 42 AUDIO
    TITLE "12:cjc026_08237"
    INDEX 01 00:25:56
  TRACK 43 AUDIO
    TITLE "0:"
    INDEX 01 00:26:56
  TRACK 44 AUDIO
    TITLE "10:cjc026_08238"
    INDEX 01 00:27:06
  TRACK 45 AUDIO
    TITLE "0:"
    INDEX 01 00:28:13
  TRACK 46 AUDIO
    TITLE "11:cjc026_08239"
    INDEX 01 00:28:39
  TRACK 47 AUDIO
    TITLE "0:"
    INDEX 01 00:29:38
  TRACK 48 AUDIO
    TITLE "12:cjc026_08240"
    INDEX 01 00:29:64
  TRACK 49 AUDIO
    TITLE "0:"
    INDEX 01 00:30:73
  TRACK 50 AUDIO
    TITLE "10:cjc026_08241"
    INDEX 01 00:31:22
  TRACK 51 AUDIO
    TITLE "0:"
    INDEX 01 00:32:11
  TRACK 52 AUDIO
    TITLE "11:cjc026_08242"
    INDEX 01 00:32:39
  TRACK 53 AUDIO
    TITLE "0:"
    INDEX 01 00:33:22
  TRACK 54 AUDIO
    TITLE "12:cjc026_08243"
    INDEX 01 00:33:48
  TRACK 55 AUDIO
    TITLE "0:"
    INDEX 01 00:34:36
  TRACK 56 AUDIO
    TITLE "10:cjc026_08244"
    INDEX 01 00:34:63
  TRACK 57 AUDIO
    TITLE "0:"
    INDEX 01 00:35:59
  TRACK 58 AUDIO
    TITLE "11:cjc026_08245"
    INDEX 01 00:36:09
  TRACK 59 AUDIO
    TITLE "0:"
    INDEX 01 00:37:01
  TRACK 60 AUDIO
    TITLE "12:cjc026_08246"
    INDEX 01 00:37:26
  TRACK 61 AUDIO
    TITLE "0:"
    INDEX 01 00:38:22
  TRACK 62 AUDIO
    TITLE "10:cjc026_08247"
    INDEX 01 00:38:47
  TRACK 63 AUDIO
    TITLE "0:"
    INDEX 01 00:39:47
  TRACK 64 AUDIO
    TITLE "11:cjc026_08248"
    INDEX 01 00:39:72
  TRACK 65 AUDIO
    TITLE "0:"
    INDEX 01 00:41:00
  TRACK 66 AUDIO
    TITLE "12:cjc026_08249"
    INDEX 01 00:41:26
  TRACK 67 AUDIO
    TITLE "0:"
    INDEX 01 00:42:25
  TRACK 68 AUDIO
    TITLE "10:cjc026_08250"
    INDEX 01 00:42:51
  TRACK 69 AUDIO
    TITLE "0:"
    INDEX 01 00:43:42
  TRACK 70 AUDIO
    TITLE "11:cjc026_08251"
    INDEX 01 00:43:72
  TRACK 71 AUDIO
    TITLE "0:"
    INDEX 01 00:45:00
  TRACK 72 AUDIO
    TITLE "12:cjc026_08252"
    INDEX 01 00:45:26
  TRACK 73 AUDIO
    TITLE "0:"
    INDEX 01 00:46:17
  TRACK 74 AUDIO
    TITLE "10:cjc026_08253"
    INDEX 01 00:46:47
  TRACK 75 AUDIO
    TITLE "0:"
    INDEX 01 00:47:34
  TRACK 76 AUDIO
    TITLE "11:cjc026_08254"
    INDEX 01 00:47:62
  TRACK 77 AUDIO
    TITLE "0:"
    INDEX 01 00:48:55
  TRACK 78 AUDIO
    TITLE "12:cjc026_08255"
    INDEX 01 00:49:06
  TRACK 79 AUDIO
    TITLE "0:"
    INDEX 01 00:49:69
